<svg width="21" height="28" viewBox="0 0 21 28" fill="none" xmlns="http://www.w3.org/2000/svg">
<path d="M13.3857 3.29268C12.7442 2.37576 12.1782 1.53219 11.6499 0.761983C11.5744 0.651953 11.4612 0.541923 11.348 0.468569C10.8952 0.175155 10.2914 0.321862 9.98949 0.761983C9.49893 1.53219 8.93289 2.33908 8.25364 3.29268C5.27251 7.54717 0.819679 13.9656 0.819679 17.6333C0.819679 20.3107 1.95175 22.7313 3.76308 24.4918C5.5744 26.2156 8.06496 27.3159 10.8197 27.3159C13.5744 27.3159 16.065 26.2156 17.8763 24.4551C19.6876 22.6947 20.8197 20.274 20.8197 17.5966C20.8197 13.9289 16.3669 7.54717 13.3857 3.29268ZM16.5178 23.1348C15.0461 24.5652 13.0461 25.4087 10.8197 25.4087C8.59326 25.4087 6.59326 24.5285 5.12157 23.1348C3.64987 21.7044 2.78194 19.7605 2.78194 17.5966C2.78194 14.5157 7.04609 8.39074 9.87628 4.31962C10.2159 3.84283 10.5178 3.36603 10.8197 2.96259C11.1216 3.36603 11.4235 3.84283 11.7631 4.31962C14.5933 8.42741 18.8574 14.5157 18.8574 17.5966C18.8574 19.7605 17.9518 21.7044 16.5178 23.1348Z" fill="black"/>
<path d="M17.2299 18.6402C16.7035 18.4792 16.15 18.7843 15.9909 19.2987C15.7627 20.112 15.3139 20.835 14.7381 21.4106C14.1624 21.9861 13.4128 22.4428 12.6004 22.6488C12.0814 22.8044 11.7522 23.3582 11.9161 23.8685C12.1009 24.4623 12.6778 24.753 13.1968 24.5974C14.3581 24.2752 15.3887 23.6473 16.1778 22.8454C17.005 22.0524 17.608 21.0108 17.9139 19.8611C18.073 19.3467 17.7562 18.8011 17.2299 18.6402Z" fill="black"/>
</svg>
