<svg width="21" height="21" viewBox="0 0 21 21" fill="none" xmlns="http://www.w3.org/2000/svg">
<path d="M13.4347 11.3982H0.826137C0.466137 11.3982 0.173965 11.0927 0.173965 10.7164C0.173965 10.34 0.466137 10.0345 0.826137 10.0345H13.4347C13.7947 10.0345 14.0869 10.34 14.0869 10.7164C14.0869 11.0927 13.7947 11.3982 13.4347 11.3982Z" fill="black"/>
<path d="M9.9565 15.0345C9.78948 15.0345 9.62261 14.9682 9.49555 14.8346C9.2408 14.5682 9.2408 14.1364 9.49555 13.8699L12.513 10.7155L9.49555 7.56099C9.2408 7.29465 9.2408 6.86269 9.49555 6.59636C9.75047 6.33002 10.1635 6.33002 10.4182 6.59636L13.8964 10.2328C14.1512 10.4992 14.1512 10.9309 13.8964 11.1973L10.4182 14.8336C10.2904 14.9682 10.1235 15.0345 9.9565 15.0345V15.0345Z" fill="black"/>
<path d="M10.6087 20.7163C6.65126 20.7163 3.15746 18.2273 1.70615 14.3744C1.57399 14.0253 1.73911 13.629 2.07395 13.4908C2.40784 13.3545 2.7879 13.5245 2.92006 13.8764C4.17313 17.2027 7.19134 19.3527 10.6087 19.3527C15.1634 19.3527 18.8696 15.478 18.8696 10.7163C18.8696 5.95459 15.1634 2.07994 10.6087 2.07994C7.19134 2.07994 4.17313 4.22992 2.92006 7.55626C2.78695 7.90815 2.40784 8.07811 2.07395 7.94178C1.73911 7.80362 1.57399 7.40728 1.70615 7.05821C3.15746 3.20536 6.65126 0.716309 10.6087 0.716309C15.8826 0.716309 20.174 5.2027 20.174 10.7163C20.174 16.2299 15.8826 20.7163 10.6087 20.7163V20.7163Z" fill="black"/>
</svg>
