<svg width="21" height="21" viewBox="0 0 21 21" fill="none" xmlns="http://www.w3.org/2000/svg">
<path d="M0.875195 11.197C2.05832 12.6402 3.39926 14.2762 5.99305 14.2762C8.58691 14.2761 9.92793 12.6402 11.1111 11.197C12.23 9.83208 13.1963 8.65325 15.2119 8.65325C17.2275 8.65325 18.1938 9.83208 19.3127 11.197C19.6402 11.5965 20.1334 11.5428 20.4143 11.077C20.6952 10.6112 20.6575 9.90974 20.3299 9.51024C19.1468 8.06697 17.8057 6.43103 15.2119 6.43103C12.618 6.43103 11.277 8.06692 10.0938 9.51024C8.97492 10.8751 8.00859 12.054 5.99305 12.054C3.97754 12.054 3.01133 10.8752 1.8925 9.51024C1.565 9.11075 1.0718 9.16436 0.790859 9.63019C0.509922 10.096 0.547695 10.7975 0.875195 11.197Z" fill="black"/>
<path d="M0.875196 5.11958C2.05828 6.56292 3.39922 8.1988 5.99305 8.1988C8.58692 8.1988 9.92793 6.56292 11.1111 5.11958C12.23 3.75469 13.1963 2.57586 15.2119 2.57586C17.2274 2.57586 18.1937 3.75464 19.3127 5.11958C19.6402 5.51919 20.1334 5.46536 20.4143 4.99953C20.6952 4.53375 20.6573 3.83219 20.3298 3.43275C19.1467 1.98942 17.8057 0.353638 15.2119 0.353638C12.618 0.353638 11.277 1.98953 10.0938 3.43286C8.97492 4.79775 8.0086 5.97658 5.99305 5.97658C3.97758 5.97658 3.01133 4.7978 1.8925 3.43286C1.565 3.0333 1.07176 3.08697 0.79086 3.5528C0.509922 4.01858 0.547695 4.72008 0.875196 5.11958Z" fill="black"/>
<path d="M20.3299 15.5876C19.1468 14.1444 17.8057 12.5084 15.2119 12.5084C12.618 12.5084 11.277 14.1443 10.0938 15.5876C8.97493 16.9525 8.0086 18.1314 5.99305 18.1314C3.97766 18.1314 3.01137 16.9526 1.89254 15.5878L1.89247 15.5876C1.56497 15.1883 1.0718 15.2419 0.790865 15.7076C0.509967 16.1734 0.54774 16.8749 0.87524 17.2744C2.05837 18.7178 3.39934 20.3536 5.99305 20.3536C8.58692 20.3536 9.92794 18.7177 11.1111 17.2744C12.23 15.9095 13.1963 14.7306 15.2119 14.7306C17.2275 14.7306 18.1938 15.9095 19.3127 17.2744C19.6402 17.6739 20.1334 17.6202 20.4143 17.1544C20.6952 16.6886 20.6575 15.9871 20.3299 15.5876Z" fill="black"/>
</svg>
